# Blender 4.3.0
# www.blender.org
mtllib obj.mtl
o Cube
v 0.500000 0.500000 -0.500000
v 0.500000 -0.500000 -0.500000
v 0.500000 0.500000 0.500000
v 0.500000 -0.500000 0.500000
v -0.500000 0.500000 -0.500000
v -0.500000 -0.500000 -0.500000
v -0.500000 0.500000 0.500000
v -0.500000 -0.500000 0.500000
vn -0.0000 1.0000 -0.0000
vn -0.0000 -0.0000 1.0000
vn -1.0000 -0.0000 -0.0000
vn -0.0000 -1.0000 -0.0000
vn 1.0000 -0.0000 -0.0000
vn -0.0000 -0.0000 -1.0000
vt 0.500000 0.500000
vt 0.749957 0.749957
vt 0.500000 0.749957
vt 0.250043 0.749957
vt 0.500000 0.999913
vt 0.250043 0.999913
vt 0.250043 0.000087
vt 0.500000 0.250043
vt 0.250043 0.250043
vt 0.000087 0.500000
vt 0.000087 0.749957
vt 0.250043 0.500000
vt 0.749957 0.500000
vt 0.500000 0.000087
s 0
usemtl Material
f 1/1/1 7/2/1 3/3/1
f 4/4/2 7/5/2 8/6/2
f 8/7/3 5/8/3 6/9/3
f 6/10/4 4/4/4 8/11/4
f 2/12/5 3/3/5 4/4/5
f 6/9/6 1/1/6 2/12/6
f 1/1/1 5/13/1 7/2/1
f 4/4/2 3/3/2 7/5/2
f 8/7/3 7/14/3 5/8/3
f 6/10/4 2/12/4 4/4/4
f 2/12/5 1/1/5 3/3/5
f 6/9/6 5/8/6 1/1/6
